{
  "accessors": [
    {
      "bufferView": 2,
      "componentType": 5126,
      "count": 65532,
      "max": [
        0.4495890140533447,
        0.3843440115451813,
        3.5764520168304443
      ],
      "min": [
        -0.8709819912910461,
        -1.2846039533615112,
        0.6631649732589722
      ],
      "type": "VEC3"
    },
    {
      "bufferView": 2,
      "byteOffset": 786384,
      "componentType": 5126,
      "count": 65532,
      "max": [
        0.9999867677688599,
        0.9999945163726807,
        0.9998145699501038
      ],
      "min": [
        -0.9999628067016602,
        -0.9999796152114868,
        -0.9985891580581665
      ],
      "type": "VEC3"
    },
    {
      "bufferView": 1,
      "componentType": 5126,
      "count": 65532,
      "max": [
        0.9992730021476746,
        0.9991480112075806
      ],
      "min": [
        0.00076299998909235,
        0.0007639999967068434
      ],
      "type": "VEC2"
    },
    {
      "bufferView": 0,
      "componentType": 5125,
      "count": 210720,
      "type": "SCALAR"
    },
    {
      "bufferView": 2,
      "byteOffset": 1572768,
      "componentType": 5126,
      "count": 65533,
      "max": [
        0.44315800070762634,
        0.32506200671195984,
        2.787169933319092
      ],
      "min": [
        -0.5849729776382446,
        -1.119431972503662,
        0.8258950114250183
      ],
      "type": "VEC3"
    },
    {
      "bufferView": 2,
      "byteOffset": 2359164,
      "componentType": 5126,
      "count": 65533,
      "max": [
        0.999997615814209,
        0.9999858140945435,
        0.9999324083328247
      ],
      "min": [
        -0.9999948740005493,
        -0.9999866485595703,
        -0.9999384880065918
      ],
      "type": "VEC3"
    },
    {
      "bufferView": 1,
      "byteOffset": 524256,
      "componentType": 5126,
      "count": 65533,
      "max": [
        0.9992740154266357,
        0.9887419939041138
      ],
      "min": [
        0.0007609999738633633,
        0.0007650000043213367
      ],
      "type": "VEC2"
    },
    {
      "bufferView": 0,
      "byteOffset": 842880,
      "componentType": 5125,
      "count": 190974,
      "type": "SCALAR"
    },
    {
      "bufferView": 2,
      "byteOffset": 3145560,
      "componentType": 5126,
      "count": 65532,
      "max": [
        0.4601050019264221,
        0.32726800441741943,
        2.8538589477539063
      ],
      "min": [
        -0.6096910238265991,
        -1.1953320503234863,
        0.7689470052719116
      ],
      "type": "VEC3"
    },
    {
      "bufferView": 2,
      "byteOffset": 3931944,
      "componentType": 5126,
      "count": 65532,
      "max": [
        0.9999853372573853,
        0.9999960660934448,
        0.9979441165924072
      ],
      "min": [
        -0.9999970197677612,
        -0.9999628067016602,
        -0.9998730421066284
      ],
      "type": "VEC3"
    },
    {
      "bufferView": 1,
      "byteOffset": 1048520,
      "componentType": 5126,
      "count": 65532,
      "max": [
        0.9993150234222412,
        0.9861040115356445
      ],
      "min": [
        0.0007650000043213367,
        0.0007590000168420374
      ],
      "type": "VEC2"
    },
    {
      "bufferView": 0,
      "byteOffset": 1606776,
      "componentType": 5125,
      "count": 187155,
      "type": "SCALAR"
    },
    {
      "bufferView": 2,
      "byteOffset": 4718328,
      "componentType": 5126,
      "count": 65532,
      "max": [
        0.41670000553131104,
        0.32172200083732605,
        3.84712290763855
      ],
      "min": [
        -0.9395800232887268,
        -1.335906982421875,
        0.7917680144309998
      ],
      "type": "VEC3"
    },
    {
      "bufferView": 2,
      "byteOffset": 5504712,
      "componentType": 5126,
      "count": 65532,
      "max": [
        0.9999513626098633,
        0.9999465942382813,
        0.9999731779098511
      ],
      "min": [
        -0.9999966621398926,
        -0.9999760389328003,
        -0.9997765421867371
      ],
      "type": "VEC3"
    },
    {
      "bufferView": 1,
      "byteOffset": 1572776,
      "componentType": 5126,
      "count": 65532,
      "max": [
        0.9991970062255859,
        0.9975969791412354
      ],
      "min": [
        0.0007600000244565308,
        0.0007609999738633633
      ],
      "type": "VEC2"
    },
    {
      "bufferView": 0,
      "byteOffset": 2355396,
      "componentType": 5125,
      "count": 199842,
      "type": "SCALAR"
    },
    {
      "bufferView": 2,
      "byteOffset": 6291096,
      "componentType": 5126,
      "count": 65534,
      "max": [
        0.7040240168571472,
        0.3953709900379181,
        3.8678019046783447
      ],
      "min": [
        -0.8716300129890442,
        -1.3636319637298584,
        -0.06738600134849548
      ],
      "type": "VEC3"
    },
    {
      "bufferView": 2,
      "byteOffset": 7077504,
      "componentType": 5126,
      "count": 65534,
      "max": [
        0.9999557733535767,
        0.999981164932251,
        0.9999945163726807
      ],
      "min": [
        -0.999961256980896,
        -0.9999544620513916,
        -0.9998463988304138
      ],
      "type": "VEC3"
    },
    {
      "bufferView": 1,
      "byteOffset": 2097032,
      "componentType": 5126,
      "count": 65534,
      "max": [
        0.9989200234413147,
        0.9978870153427124
      ],
      "min": [
        0.0007600000244565308,
        0.0007600000244565308
      ],
      "type": "VEC2"
    },
    {
      "bufferView": 0,
      "byteOffset": 3154764,
      "componentType": 5125,
      "count": 191898,
      "type": "SCALAR"
    },
    {
      "bufferView": 2,
      "byteOffset": 7863912,
      "componentType": 5126,
      "count": 65532,
      "max": [
        0.6803640127182007,
        0.5574250221252441,
        3.093782901763916
      ],
      "min": [
        -0.44822800159454346,
        -1.0577930212020874,
        -0.06338799744844437
      ],
      "type": "VEC3"
    },
    {
      "bufferView": 2,
      "byteOffset": 8650296,
      "componentType": 5126,
      "count": 65532,
      "max": [
        0.9999712705612183,
        0.999953031539917,
        0.9999271631240845
      ],
      "min": [
        -0.9997338652610779,
        -0.9999599456787109,
        -0.9748747944831848
      ],
      "type": "VEC3"
    },
    {
      "bufferView": 1,
      "byteOffset": 2621304,
      "componentType": 5126,
      "count": 65532,
      "max": [
        0.9994540214538574,
        0.993628978729248
      ],
      "min": [
        0.0007590000168420374,
        0.0007600000244565308
      ],
      "type": "VEC2"
    },
    {
      "bufferView": 0,
      "byteOffset": 3922356,
      "componentType": 5125,
      "count": 186798,
      "type": "SCALAR"
    },
    {
      "bufferView": 2,
      "byteOffset": 9436680,
      "componentType": 5126,
      "count": 65532,
      "max": [
        0.7298660278320313,
        0.5585730075836182,
        4.651641845703125
      ],
      "min": [
        -0.44830000400543213,
        -0.8574349880218506,
        -0.06913899630308151
      ],
      "type": "VEC3"
    },
    {
      "bufferView": 2,
      "byteOffset": 10223064,
      "componentType": 5126,
      "count": 65532,
      "max": [
        0.9998843669891357,
        0.9999955892562866,
        0.9999576807022095
      ],
      "min": [
        -0.9997091889381409,
        -0.9999827146530151,
        -0.9999436140060425
      ],
      "type": "VEC3"
    },
    {
      "bufferView": 1,
      "byteOffset": 3145560,
      "componentType": 5126,
      "count": 65532,
      "max": [
        0.9993109703063965,
        0.9975230097770691
      ],
      "min": [
        0.0007600000244565308,
        0.0007590000168420374
      ],
      "type": "VEC2"
    },
    {
      "bufferView": 0,
      "byteOffset": 4669548,
      "componentType": 5125,
      "count": 202899,
      "type": "SCALAR"
    },
    {
      "bufferView": 2,
      "byteOffset": 11009448,
      "componentType": 5126,
      "count": 65532,
      "max": [
        0.6611670255661011,
        0.5585730075836182,
        3.8460569381713867
      ],
      "min": [
        -0.9369019865989685,
        -1.240949034690857,
        -0.06913899630308151
      ],
      "type": "VEC3"
    },
    {
      "bufferView": 2,
      "byteOffset": 11795832,
      "componentType": 5126,
      "count": 65532,
      "max": [
        0.9999780654907227,
        0.9999351501464844,
        0.9999812841415405
      ],
      "min": [
        -1.0,
        -0.9999938011169434,
        -0.999992847442627
      ],
      "type": "VEC3"
    },
    {
      "bufferView": 1,
      "byteOffset": 3669816,
      "componentType": 5126,
      "count": 65532,
      "max": [
        0.9994540214538574,
        0.9978730082511902
      ],
      "min": [
        0.0007580000092275441,
        0.00076299998909235
      ],
      "type": "VEC2"
    },
    {
      "bufferView": 0,
      "byteOffset": 5481144,
      "componentType": 5125,
      "count": 175908,
      "type": "SCALAR"
    },
    {
      "bufferView": 2,
      "byteOffset": 12582216,
      "componentType": 5126,
      "count": 65532,
      "max": [
        0.4135810136795044,
        -0.36697301268577576,
        3.8439559936523438
      ],
      "min": [
        -0.8652300238609314,
        -1.3155030012130737,
        2.263490915298462
      ],
      "type": "VEC3"
    },
    {
      "bufferView": 2,
      "byteOffset": 13368600,
      "componentType": 5126,
      "count": 65532,
      "max": [
        0.9999936819076538,
        0.9998196959495544,
        0.9999182224273682
      ],
      "min": [
        -0.9999567270278931,
        -0.9999747276306152,
        -0.9998205304145813
      ],
      "type": "VEC3"
    },
    {
      "bufferView": 1,
      "byteOffset": 4194072,
      "componentType": 5126,
      "count": 65532,
      "max": [
        0.9993330240249634,
        0.993664026260376
      ],
      "min": [
        0.00076299998909235,
        0.0007590000168420374
      ],
      "type": "VEC2"
    },
    {
      "bufferView": 0,
      "byteOffset": 6184776,
      "componentType": 5125,
      "count": 190230,
      "type": "SCALAR"
    },
    {
      "bufferView": 2,
      "byteOffset": 14154984,
      "componentType": 5126,
      "count": 65532,
      "max": [
        0.430637001991272,
        0.33908599615097046,
        3.846205949783325
      ],
      "min": [
        -0.907820999622345,
        -1.3153510093688965,
        2.253957986831665
      ],
      "type": "VEC3"
    },
    {
      "bufferView": 2,
      "byteOffset": 14941368,
      "componentType": 5126,
      "count": 65532,
      "max": [
        0.9999682903289795,
        0.9999961853027344,
        0.9999097585678101
      ],
      "min": [
        -0.9999974966049194,
        -0.9999420642852783,
        -0.9999784231185913
      ],
      "type": "VEC3"
    },
    {
      "bufferView": 1,
      "byteOffset": 4718328,
      "componentType": 5126,
      "count": 65532,
      "max": [
        0.9992629885673523,
        0.9938889741897583
      ],
      "min": [
        0.0007600000244565308,
        0.0007570000016130507
      ],
      "type": "VEC2"
    },
    {
      "bufferView": 0,
      "byteOffset": 6945696,
      "componentType": 5125,
      "count": 191322,
      "type": "SCALAR"
    },
    {
      "bufferView": 2,
      "byteOffset": 15727752,
      "componentType": 5126,
      "count": 65532,
      "max": [
        0.43069300055503845,
        0.33865201473236084,
        3.850625991821289
      ],
      "min": [
        -0.9362239837646484,
        -0.6127039790153503,
        2.2517709732055664
      ],
      "type": "VEC3"
    },
    {
      "bufferView": 2,
      "byteOffset": 16514136,
      "componentType": 5126,
      "count": 65532,
      "max": [
        0.9999889135360718,
        0.9999521970748901,
        0.9999743700027466
      ],
      "min": [
        -0.9999336004257202,
        -0.9922658801078796,
        -0.9997853636741638
      ],
      "type": "VEC3"
    },
    {
      "bufferView": 1,
      "byteOffset": 5242584,
      "componentType": 5126,
      "count": 65532,
      "max": [
        0.9991899728775024,
        0.9829990267753601
      ],
      "min": [
        0.0007639999967068434,
        0.0007600000244565308
      ],
      "type": "VEC2"
    },
    {
      "bufferView": 0,
      "byteOffset": 7710984,
      "componentType": 5125,
      "count": 190344,
      "type": "SCALAR"
    },
    {
      "bufferView": 2,
      "byteOffset": 17300520,
      "componentType": 5126,
      "count": 46215,
      "max": [
        0.4129830002784729,
        0.34170201420783997,
        3.8448638916015625
      ],
      "min": [
        -0.9264789819717407,
        -1.1863579750061035,
        0.8540059924125671
      ],
      "type": "VEC3"
    },
    {
      "bufferView": 2,
      "byteOffset": 17855100,
      "componentType": 5126,
      "count": 46215,
      "max": [
        0.9999662637710571,
        0.9999994039535522,
        0.9999970197677612
      ],
      "min": [
        -0.9999576807022095,
        -0.9998537302017212,
        -0.9999706745147705
      ],
      "type": "VEC3"
    },
    {
      "bufferView": 1,
      "byteOffset": 5766840,
      "componentType": 5126,
      "count": 46215,
      "max": [
        0.9992390275001526,
        0.9959449768066406
      ],
      "min": [
        0.0007680000271648169,
        0.0007619999814778566
      ],
      "type": "VEC2"
    },
    {
      "bufferView": 0,
      "byteOffset": 8472360,
      "componentType": 5125,
      "count": 123237,
      "type": "SCALAR"
    },
    {
      "bufferView": 2,
      "byteOffset": 18409680,
      "componentType": 5126,
      "count": 2306,
      "max": [
        0.7294859886169434,
        0.5189669728279114,
        -0.05546100065112114
      ],
      "min": [
        -0.39338698983192444,
        -1.0760459899902344,
        -0.06913899630308151
      ],
      "type": "VEC3"
    },
    {
      "bufferView": 2,
      "byteOffset": 18437352,
      "componentType": 5126,
      "count": 2306,
      "max": [
        0.9479473233222961,
        -0.002700134878978133,
        -0.31841591000556946
      ],
      "min": [
        -0.05150185525417328,
        -0.008600408211350441,
        -0.9999630451202393
      ],
      "type": "VEC3"
    },
    {
      "bufferView": 1,
      "byteOffset": 6136560,
      "componentType": 5126,
      "count": 2306,
      "max": [
        0.375,
        0.9241729974746704
      ],
      "min": [
        0.375,
        0.783814013004303
      ],
      "type": "VEC2"
    },
    {
      "bufferView": 0,
      "byteOffset": 8965308,
      "componentType": 5125,
      "count": 3561,
      "type": "SCALAR"
    }
  ],
  "asset": {
    "extras": {
      "author": "noe-3d.at (https://sketchfab.com/www.noe-3d.at)",
      "license": "CC-BY-NC-4.0 (http://creativecommons.org/licenses/by-nc/4.0/)",
      "source": "https://sketchfab.com/3d-models/hygieia-201eb37f119a4c49be06ef63137f53c0",
      "title": "Hygieia"
    },
    "generator": "Sketchfab-15.86.0",
    "version": "2.0"
  },
  "bufferViews": [
    {
      "buffer": 0,
      "byteLength": 8979552,
      "name": "floatBufferViews",
      "target": 34963
    },
    {
      "buffer": 0,
      "byteLength": 6155008,
      "byteOffset": 8979552,
      "byteStride": 8,
      "name": "floatBufferViews",
      "target": 34962
    },
    {
      "buffer": 0,
      "byteLength": 18465024,
      "byteOffset": 15134560,
      "byteStride": 12,
      "name": "floatBufferViews",
      "target": 34962
    }
  ],
  "buffers": [
    {
      "byteLength": 33599584,
      "uri": "scene.bin"
    }
  ],
  "extensionsUsed": [
    "KHR_materials_specular"
  ],
  "images": [
    {
      "uri": "textures/Hygieia_O.001_baseColor.png"
    }
  ],
  "materials": [
    {
      "doubleSided": true,
      "extensions": {
        "KHR_materials_specular": {
          "specularColorFactor": [
            1.0,
            1.0,
            1.0
          ],
          "specularFactor": 0.0
        }
      },
      "name": "Hygieia_O.001",
      "pbrMetallicRoughness": {
        "baseColorTexture": {
          "index": 0
        },
        "metallicFactor": 0.0
      }
    },
    {
      "doubleSided": true,
      "extensions": {
        "KHR_materials_specular": {
          "specularColorFactor": [
            1.0,
            1.0,
            1.0
          ],
          "specularFactor": 0.0
        }
      },
      "name": "bottom",
      "pbrMetallicRoughness": {
        "baseColorFactor": [
          0.016343857809852372,
          0.016343857809852372,
          0.016343857809852372,
          1.0
        ],
        "metallicFactor": 0.0,
        "roughnessFactor": 0.7188293374048255
      }
    }
  ],
  "meshes": [
    {
      "name": "Object_0",
      "primitives": [
        {
          "attributes": {
            "NORMAL": 1,
            "POSITION": 0,
            "TEXCOORD_0": 2
          },
          "indices": 3,
          "material": 0,
          "mode": 4
        }
      ]
    },
    {
      "name": "Object_1",
      "primitives": [
        {
          "attributes": {
            "NORMAL": 5,
            "POSITION": 4,
            "TEXCOORD_0": 6
          },
          "indices": 7,
          "material": 0,
          "mode": 4
        }
      ]
    },
    {
      "name": "Object_2",
      "primitives": [
        {
          "attributes": {
            "NORMAL": 9,
            "POSITION": 8,
            "TEXCOORD_0": 10
          },
          "indices": 11,
          "material": 0,
          "mode": 4
        }
      ]
    },
    {
      "name": "Object_3",
      "primitives": [
        {
          "attributes": {
            "NORMAL": 13,
            "POSITION": 12,
            "TEXCOORD_0": 14
          },
          "indices": 15,
          "material": 0,
          "mode": 4
        }
      ]
    },
    {
      "name": "Object_4",
      "primitives": [
        {
          "attributes": {
            "NORMAL": 17,
            "POSITION": 16,
            "TEXCOORD_0": 18
          },
          "indices": 19,
          "material": 0,
          "mode": 4
        }
      ]
    },
    {
      "name": "Object_5",
      "primitives": [
        {
          "attributes": {
            "NORMAL": 21,
            "POSITION": 20,
            "TEXCOORD_0": 22
          },
          "indices": 23,
          "material": 0,
          "mode": 4
        }
      ]
    },
    {
      "name": "Object_6",
      "primitives": [
        {
          "attributes": {
            "NORMAL": 25,
            "POSITION": 24,
            "TEXCOORD_0": 26
          },
          "indices": 27,
          "material": 0,
          "mode": 4
        }
      ]
    },
    {
      "name": "Object_7",
      "primitives": [
        {
          "attributes": {
            "NORMAL": 29,
            "POSITION": 28,
            "TEXCOORD_0": 30
          },
          "indices": 31,
          "material": 0,
          "mode": 4
        }
      ]
    },
    {
      "name": "Object_8",
      "primitives": [
        {
          "attributes": {
            "NORMAL": 33,
            "POSITION": 32,
            "TEXCOORD_0": 34
          },
          "indices": 35,
          "material": 0,
          "mode": 4
        }
      ]
    },
    {
      "name": "Object_9",
      "primitives": [
        {
          "attributes": {
            "NORMAL": 37,
            "POSITION": 36,
            "TEXCOORD_0": 38
          },
          "indices": 39,
          "material": 0,
          "mode": 4
        }
      ]
    },
    {
      "name": "Object_10",
      "primitives": [
        {
          "attributes": {
            "NORMAL": 41,
            "POSITION": 40,
            "TEXCOORD_0": 42
          },
          "indices": 43,
          "material": 0,
          "mode": 4
        }
      ]
    },
    {
      "name": "Object_11",
      "primitives": [
        {
          "attributes": {
            "NORMAL": 45,
            "POSITION": 44,
            "TEXCOORD_0": 46
          },
          "indices": 47,
          "material": 0,
          "mode": 4
        }
      ]
    },
    {
      "name": "Object_12",
      "primitives": [
        {
          "attributes": {
            "NORMAL": 49,
            "POSITION": 48,
            "TEXCOORD_0": 50
          },
          "indices": 51,
          "material": 1,
          "mode": 4
        }
      ]
    }
  ],
  "nodes": [
    {
      "children": [
        1
      ],
      "matrix": [
        0.05646643277621077,
        -0.0003742390027154319,
        -0.4154071891182127,
        0.0,
        -0.41539806853156236,
        0.0027531076458246055,
        -0.056467669677688015,
        0.0,
        0.0027784268394631384,
        0.4192183449426352,
        9.308517178011293e-17,
        0.0,
        0.0,
        0.0,
        0.0,
        1.0
      ],
      "name": "Sketchfab_model"
    },
    {
      "children": [
        2,
        3,
        4,
        5,
        6,
        7,
        8,
        9,
        10,
        11,
        12,
        13,
        14
      ],
      "name": "Hygieia_C.obj.cleaner.materialmerger.gles"
    },
    {
      "mesh": 0,
      "name": "Object_2"
    },
    {
      "mesh": 1,
      "name": "Object_3"
    },
    {
      "mesh": 2,
      "name": "Object_4"
    },
    {
      "mesh": 3,
      "name": "Object_5"
    },
    {
      "mesh": 4,
      "name": "Object_6"
    },
    {
      "mesh": 5,
      "name": "Object_7"
    },
    {
      "mesh": 6,
      "name": "Object_8"
    },
    {
      "mesh": 7,
      "name": "Object_9"
    },
    {
      "mesh": 8,
      "name": "Object_10"
    },
    {
      "mesh": 9,
      "name": "Object_11"
    },
    {
      "mesh": 10,
      "name": "Object_12"
    },
    {
      "mesh": 11,
      "name": "Object_13"
    },
    {
      "mesh": 12,
      "name": "Object_14"
    }
  ],
  "samplers": [
    {
      "magFilter": 9729,
      "minFilter": 9987,
      "wrapS": 10497,
      "wrapT": 10497
    }
  ],
  "scene": 0,
  "scenes": [
    {
      "name": "Sketchfab_Scene",
      "nodes": [
        0
      ]
    }
  ],
  "textures": [
    {
      "sampler": 0,
      "source": 0
    }
  ]
}
