{
  "accessors": [
    {
      "bufferView": 2,
      "componentType": 5126,
      "count": 65533,
      "max": [
        1.9782350063323975,
        2.259330987930298,
        10.513397216796875
      ],
      "min": [
        -1.9782350063323975,
        -1.6971399784088135,
        -0.20000000298023224
      ],
      "type": "VEC3"
    },
    {
      "bufferView": 2,
      "byteOffset": 786396,
      "componentType": 5126,
      "count": 65533,
      "max": [
        1.0,
        1.0,
        1.0
      ],
      "min": [
        -1.0,
        -1.0,
        -1.0
      ],
      "type": "VEC3"
    },
    {
      "bufferView": 1,
      "componentType": 5126,
      "count": 65533,
      "max": [
        1.0,
        1.0
      ],
      "min": [
        0.0,
        0.0
      ],
      "type": "VEC2"
    },
    {
      "bufferView": 0,
      "componentType": 5125,
      "count": 65565,
      "type": "SCALAR"
    },
    {
      "bufferView": 2,
      "byteOffset": 1572792,
      "componentType": 5126,
      "count": 59493,
      "max": [
        1.9328550100326538,
        2.2432100772857666,
        10.535975456237793
      ],
      "min": [
        -1.9468090534210205,
        -1.6499439477920532,
        -0.08155100047588348
      ],
      "type": "VEC3"
    },
    {
      "bufferView": 2,
      "byteOffset": 2286708,
      "componentType": 5126,
      "count": 59493,
      "max": [
        0.999993085861206,
        0.9999768733978271,
        0.9999220371246338
      ],
      "min": [
        -0.9999642372131348,
        -0.9999860525131226,
        -0.999790608882904
      ],
      "type": "VEC3"
    },
    {
      "bufferView": 1,
      "byteOffset": 524264,
      "componentType": 5126,
      "count": 59493,
      "max": [
        0.9994850158691406,
        0.9997010231018066
      ],
      "min": [
        0.00026199998683296144,
        0.00039599998854100704
      ],
      "type": "VEC2"
    },
    {
      "bufferView": 0,
      "byteOffset": 262260,
      "componentType": 5125,
      "count": 59499,
      "type": "SCALAR"
    },
    {
      "bufferView": 2,
      "byteOffset": 3000624,
      "componentType": 5126,
      "count": 65534,
      "max": [
        1.9458489418029785,
        2.240912914276123,
        10.461050987243652
      ],
      "min": [
        -1.9516220092773438,
        -1.649170994758606,
        -0.08455400168895721
      ],
      "type": "VEC3"
    },
    {
      "bufferView": 2,
      "byteOffset": 3787032,
      "componentType": 5126,
      "count": 65534,
      "max": [
        0.9999998807907104,
        0.9999876022338867,
        0.9999995231628418
      ],
      "min": [
        -0.999984622001648,
        -0.9999344348907471,
        -0.9998694658279419
      ],
      "type": "VEC3"
    },
    {
      "bufferView": 1,
      "byteOffset": 1000208,
      "componentType": 5126,
      "count": 65534,
      "max": [
        1.9994779825210571,
        0.9996950030326843
      ],
      "min": [
        1.001634955406189,
        0.0009459999855607748
      ],
      "type": "VEC2"
    },
    {
      "bufferView": 0,
      "byteOffset": 500256,
      "componentType": 5125,
      "count": 65562,
      "type": "SCALAR"
    },
    {
      "bufferView": 2,
      "byteOffset": 4573440,
      "componentType": 5126,
      "count": 65533,
      "max": [
        1.9458489418029785,
        2.2398159503936768,
        10.481764793395996
      ],
      "min": [
        -1.9535540342330933,
        -1.6450749635696411,
        -0.08434999734163284
      ],
      "type": "VEC3"
    },
    {
      "bufferView": 2,
      "byteOffset": 5359836,
      "componentType": 5126,
      "count": 65533,
      "max": [
        0.9999997615814209,
        0.9999897480010986,
        0.9999966621398926
      ],
      "min": [
        -0.9999958276748657,
        -0.9999752044677734,
        -0.9975387454032898
      ],
      "type": "VEC3"
    },
    {
      "bufferView": 1,
      "byteOffset": 1524480,
      "componentType": 5126,
      "count": 65533,
      "max": [
        1.9995839595794678,
        0.9997090101242065
      ],
      "min": [
        1.0003080368041992,
        0.0008740000193938613
      ],
      "type": "VEC2"
    },
    {
      "bufferView": 0,
      "byteOffset": 762504,
      "componentType": 5125,
      "count": 65541,
      "type": "SCALAR"
    },
    {
      "bufferView": 2,
      "byteOffset": 6146232,
      "componentType": 5126,
      "count": 38670,
      "max": [
        1.9458489418029785,
        2.2330870628356934,
        10.46963882446289
      ],
      "min": [
        -1.943811058998108,
        -1.649170994758606,
        -0.08378099650144577
      ],
      "type": "VEC3"
    },
    {
      "bufferView": 2,
      "byteOffset": 6610272,
      "componentType": 5126,
      "count": 38670,
      "max": [
        0.9999996423721313,
        0.999929666519165,
        0.9999972581863403
      ],
      "min": [
        -0.996799647808075,
        -0.9996181130409241,
        -0.9985027313232422
      ],
      "type": "VEC3"
    },
    {
      "bufferView": 1,
      "byteOffset": 2048744,
      "componentType": 5126,
      "count": 38670,
      "max": [
        1.9995720386505127,
        0.9997190237045288
      ],
      "min": [
        1.0045249462127686,
        0.00039599998854100704
      ],
      "type": "VEC2"
    },
    {
      "bufferView": 0,
      "byteOffset": 1024668,
      "componentType": 5125,
      "count": 38676,
      "type": "SCALAR"
    },
    {
      "bufferView": 2,
      "byteOffset": 7074312,
      "componentType": 5126,
      "count": 65534,
      "max": [
        1.942242980003357,
        2.241485118865967,
        10.504291534423828
      ],
      "min": [
        -1.944342017173767,
        -1.652047038078308,
        -0.08457200229167938
      ],
      "type": "VEC3"
    },
    {
      "bufferView": 2,
      "byteOffset": 7860720,
      "componentType": 5126,
      "count": 65534,
      "max": [
        0.9999982118606567,
        0.9999885559082031,
        0.9999874830245972
      ],
      "min": [
        -0.9999904632568359,
        -0.9999984502792358,
        -0.9994669556617737
      ],
      "type": "VEC3"
    },
    {
      "bufferView": 1,
      "byteOffset": 2358104,
      "componentType": 5126,
      "count": 65534,
      "max": [
        2.9995720386505127,
        0.999737024307251
      ],
      "min": [
        2.0003271102905273,
        0.00060299999313429
      ],
      "type": "VEC2"
    },
    {
      "bufferView": 0,
      "byteOffset": 1179372,
      "componentType": 5125,
      "count": 65550,
      "type": "SCALAR"
    },
    {
      "bufferView": 2,
      "byteOffset": 8647128,
      "componentType": 5126,
      "count": 65532,
      "max": [
        1.9425230026245117,
        2.239509105682373,
        10.53635311126709
      ],
      "min": [
        -1.944342017173767,
        -1.652047038078308,
        -0.08471199870109558
      ],
      "type": "VEC3"
    },
    {
      "bufferView": 2,
      "byteOffset": 9433512,
      "componentType": 5126,
      "count": 65532,
      "max": [
        0.9999997615814209,
        0.9997909665107727,
        0.9999953508377075
      ],
      "min": [
        -0.9999830722808838,
        -1.0,
        -0.9990683197975159
      ],
      "type": "VEC3"
    },
    {
      "bufferView": 1,
      "byteOffset": 2882376,
      "componentType": 5126,
      "count": 65532,
      "max": [
        2.999717950820923,
        0.9997280240058899
      ],
      "min": [
        2.0003159046173096,
        0.00042600001324899495
      ],
      "type": "VEC2"
    },
    {
      "bufferView": 0,
      "byteOffset": 1441572,
      "componentType": 5125,
      "count": 65544,
      "type": "SCALAR"
    },
    {
      "bufferView": 2,
      "byteOffset": 10219896,
      "componentType": 5126,
      "count": 1095,
      "max": [
        1.928375005722046,
        2.2342309951782227,
        9.55521011352539
      ],
      "min": [
        -1.9360929727554321,
        -1.652047038078308,
        -0.07204300165176392
      ],
      "type": "VEC3"
    },
    {
      "bufferView": 2,
      "byteOffset": 10233036,
      "componentType": 5126,
      "count": 1095,
      "max": [
        0.9976099133491516,
        0.9999498128890991,
        0.999922513961792
      ],
      "min": [
        -0.9984885454177856,
        -0.9999196529388428,
        -0.9644007086753845
      ],
      "type": "VEC3"
    },
    {
      "bufferView": 1,
      "byteOffset": 3406632,
      "componentType": 5126,
      "count": 1095,
      "max": [
        2.9887499809265137,
        0.9966300129890442
      ],
      "min": [
        2.000540018081665,
        0.03487199917435646
      ],
      "type": "VEC2"
    },
    {
      "bufferView": 0,
      "byteOffset": 1703748,
      "componentType": 5125,
      "count": 1095,
      "type": "SCALAR"
    },
    {
      "bufferView": 2,
      "byteOffset": 10246176,
      "componentType": 5126,
      "count": 65532,
      "max": [
        1.942196011543274,
        2.2445991039276123,
        10.529362678527832
      ],
      "min": [
        -1.9423749446868896,
        -1.652047038078308,
        -0.08379500359296799
      ],
      "type": "VEC3"
    },
    {
      "bufferView": 2,
      "byteOffset": 11032560,
      "componentType": 5126,
      "count": 65532,
      "max": [
        0.9999916553497314,
        0.9999938011169434,
        0.9999994039535522
      ],
      "min": [
        -0.9999932050704956,
        -0.999923825263977,
        -0.9994142055511475
      ],
      "type": "VEC3"
    },
    {
      "bufferView": 1,
      "byteOffset": 3415392,
      "componentType": 5126,
      "count": 65532,
      "max": [
        3.999708890914917,
        0.9996659755706787
      ],
      "min": [
        3.000425100326538,
        0.000450999999884516
      ],
      "type": "VEC2"
    },
    {
      "bufferView": 0,
      "byteOffset": 1708128,
      "componentType": 5125,
      "count": 65544,
      "type": "SCALAR"
    },
    {
      "bufferView": 2,
      "byteOffset": 11818944,
      "componentType": 5126,
      "count": 65533,
      "max": [
        1.9420679807662964,
        2.2445991039276123,
        10.53271198272705
      ],
      "min": [
        -1.9423749446868896,
        -1.6457849740982056,
        -0.08455900102853775
      ],
      "type": "VEC3"
    },
    {
      "bufferView": 2,
      "byteOffset": 12605340,
      "componentType": 5126,
      "count": 65533,
      "max": [
        0.9999940395355225,
        0.9999995231628418,
        0.9999985694885254
      ],
      "min": [
        -0.9999668598175049,
        -0.9997066855430603,
        -0.9999217987060547
      ],
      "type": "VEC3"
    },
    {
      "bufferView": 1,
      "byteOffset": 3939648,
      "componentType": 5126,
      "count": 65533,
      "max": [
        3.9996659755706787,
        0.9997320175170898
      ],
      "min": [
        3.0003249645233154,
        0.0005699999746866524
      ],
      "type": "VEC2"
    },
    {
      "bufferView": 0,
      "byteOffset": 1970304,
      "componentType": 5125,
      "count": 65541,
      "type": "SCALAR"
    },
    {
      "bufferView": 2,
      "byteOffset": 13391736,
      "componentType": 5126,
      "count": 29732,
      "max": [
        1.942196011543274,
        2.2445991039276123,
        10.539661407470703
      ],
      "min": [
        -1.9429069757461548,
        -1.6486320495605469,
        -0.08455900102853775
      ],
      "type": "VEC3"
    },
    {
      "bufferView": 2,
      "byteOffset": 13748520,
      "componentType": 5126,
      "count": 29732,
      "max": [
        0.9999988079071045,
        0.9999966621398926,
        0.9999997615814209
      ],
      "min": [
        -0.9999086856842041,
        -0.9999786615371704,
        -0.9978339076042175
      ],
      "type": "VEC3"
    },
    {
      "bufferView": 1,
      "byteOffset": 4463912,
      "componentType": 5126,
      "count": 29732,
      "max": [
        3.997546911239624,
        0.9997289776802063
      ],
      "min": [
        3.00032901763916,
        0.0007229999755509198
      ],
      "type": "VEC2"
    },
    {
      "bufferView": 0,
      "byteOffset": 2232468,
      "componentType": 5125,
      "count": 29736,
      "type": "SCALAR"
    },
    {
      "bufferView": 2,
      "byteOffset": 14105304,
      "componentType": 5126,
      "count": 65533,
      "max": [
        1.9425230026245117,
        2.2432100772857666,
        10.539661407470703
      ],
      "min": [
        -1.9498790502548218,
        -1.649170994758606,
        -0.08455900102853775
      ],
      "type": "VEC3"
    },
    {
      "bufferView": 2,
      "byteOffset": 14891700,
      "componentType": 5126,
      "count": 65533,
      "max": [
        0.9999955892562866,
        0.9999897480010986,
        0.9999953508377075
      ],
      "min": [
        -0.9999986886978149,
        -0.9999966621398926,
        -0.9996393322944641
      ],
      "type": "VEC3"
    },
    {
      "bufferView": 1,
      "byteOffset": 4701768,
      "componentType": 5126,
      "count": 65533,
      "max": [
        4.873538017272949,
        0.9997379779815674
      ],
      "min": [
        4.00026798248291,
        0.00039599998854100704
      ],
      "type": "VEC2"
    },
    {
      "bufferView": 0,
      "byteOffset": 2351412,
      "componentType": 5125,
      "count": 65541,
      "type": "SCALAR"
    },
    {
      "bufferView": 2,
      "byteOffset": 15678096,
      "componentType": 5126,
      "count": 17343,
      "max": [
        1.940068006515503,
        2.238558053970337,
        10.539661407470703
      ],
      "min": [
        -1.9493659734725952,
        -1.6472580432891846,
        -0.0843769982457161
      ],
      "type": "VEC3"
    },
    {
      "bufferView": 2,
      "byteOffset": 15886212,
      "componentType": 5126,
      "count": 17343,
      "max": [
        0.9999970197677612,
        0.9999417066574097,
        0.999998927116394
      ],
      "min": [
        -0.9999831914901733,
        -0.9999879598617554,
        -0.9984015226364136
      ],
      "type": "VEC3"
    },
    {
      "bufferView": 1,
      "byteOffset": 5226032,
      "componentType": 5126,
      "count": 17343,
      "max": [
        4.8880791664123535,
        0.9997349977493286
      ],
      "min": [
        4.000277042388916,
        0.0004720000142697245
      ],
      "type": "VEC2"
    },
    {
      "bufferView": 0,
      "byteOffset": 2613576,
      "componentType": 5125,
      "count": 17343,
      "type": "SCALAR"
    }
  ],
  "asset": {
    "extras": {
      "author": "naka2012 (https://sketchfab.com/naka2012)",
      "license": "CC-BY-4.0 (http://creativecommons.org/licenses/by/4.0/)",
      "source": "https://sketchfab.com/3d-models/a-goddess-statue-c00b5a52340f4be09d5060d9ad9230f9",
      "title": "A goddess statue"
    },
    "generator": "Sketchfab-15.59.0",
    "version": "2.0"
  },
  "bufferViews": [
    {
      "buffer": 0,
      "byteLength": 2682948,
      "name": "floatBufferViews",
      "target": 34963
    },
    {
      "buffer": 0,
      "byteLength": 5364776,
      "byteOffset": 2682948,
      "byteStride": 8,
      "name": "floatBufferViews",
      "target": 34962
    },
    {
      "buffer": 0,
      "byteLength": 16094328,
      "byteOffset": 8047724,
      "byteStride": 12,
      "name": "floatBufferViews",
      "target": 34962
    }
  ],
  "buffers": [
    {
      "byteLength": 24142052,
      "uri": "scene.bin"
    }
  ],
  "materials": [
    {
      "doubleSided": true,
      "name": "1_tex0",
      "pbrMetallicRoughness": {
        "metallicFactor": 0.0,
        "roughnessFactor": 0.6
      }
    },
    {
      "doubleSided": true,
      "name": "1_tex1",
      "pbrMetallicRoughness": {
        "metallicFactor": 0.0,
        "roughnessFactor": 0.6
      }
    },
    {
      "doubleSided": true,
      "name": "1_tex2",
      "pbrMetallicRoughness": {
        "metallicFactor": 0.0,
        "roughnessFactor": 0.6
      }
    },
    {
      "doubleSided": true,
      "name": "1_tex3",
      "pbrMetallicRoughness": {
        "metallicFactor": 0.0,
        "roughnessFactor": 0.6
      }
    },
    {
      "doubleSided": true,
      "name": "1_tex4",
      "pbrMetallicRoughness": {
        "metallicFactor": 0.0,
        "roughnessFactor": 0.6
      }
    }
  ],
  "meshes": [
    {
      "name": "Object_0",
      "primitives": [
        {
          "attributes": {
            "NORMAL": 1,
            "POSITION": 0,
            "TEXCOORD_0": 2
          },
          "indices": 3,
          "material": 0,
          "mode": 4
        }
      ]
    },
    {
      "name": "Object_1",
      "primitives": [
        {
          "attributes": {
            "NORMAL": 5,
            "POSITION": 4,
            "TEXCOORD_0": 6
          },
          "indices": 7,
          "material": 0,
          "mode": 4
        }
      ]
    },
    {
      "name": "Object_2",
      "primitives": [
        {
          "attributes": {
            "NORMAL": 9,
            "POSITION": 8,
            "TEXCOORD_0": 10
          },
          "indices": 11,
          "material": 1,
          "mode": 4
        }
      ]
    },
    {
      "name": "Object_3",
      "primitives": [
        {
          "attributes": {
            "NORMAL": 13,
            "POSITION": 12,
            "TEXCOORD_0": 14
          },
          "indices": 15,
          "material": 1,
          "mode": 4
        }
      ]
    },
    {
      "name": "Object_4",
      "primitives": [
        {
          "attributes": {
            "NORMAL": 17,
            "POSITION": 16,
            "TEXCOORD_0": 18
          },
          "indices": 19,
          "material": 1,
          "mode": 4
        }
      ]
    },
    {
      "name": "Object_5",
      "primitives": [
        {
          "attributes": {
            "NORMAL": 21,
            "POSITION": 20,
            "TEXCOORD_0": 22
          },
          "indices": 23,
          "material": 2,
          "mode": 4
        }
      ]
    },
    {
      "name": "Object_6",
      "primitives": [
        {
          "attributes": {
            "NORMAL": 25,
            "POSITION": 24,
            "TEXCOORD_0": 26
          },
          "indices": 27,
          "material": 2,
          "mode": 4
        }
      ]
    },
    {
      "name": "Object_7",
      "primitives": [
        {
          "attributes": {
            "NORMAL": 29,
            "POSITION": 28,
            "TEXCOORD_0": 30
          },
          "indices": 31,
          "material": 2,
          "mode": 4
        }
      ]
    },
    {
      "name": "Object_8",
      "primitives": [
        {
          "attributes": {
            "NORMAL": 33,
            "POSITION": 32,
            "TEXCOORD_0": 34
          },
          "indices": 35,
          "material": 3,
          "mode": 4
        }
      ]
    },
    {
      "name": "Object_9",
      "primitives": [
        {
          "attributes": {
            "NORMAL": 37,
            "POSITION": 36,
            "TEXCOORD_0": 38
          },
          "indices": 39,
          "material": 3,
          "mode": 4
        }
      ]
    },
    {
      "name": "Object_10",
      "primitives": [
        {
          "attributes": {
            "NORMAL": 41,
            "POSITION": 40,
            "TEXCOORD_0": 42
          },
          "indices": 43,
          "material": 3,
          "mode": 4
        }
      ]
    },
    {
      "name": "Object_11",
      "primitives": [
        {
          "attributes": {
            "NORMAL": 45,
            "POSITION": 44,
            "TEXCOORD_0": 46
          },
          "indices": 47,
          "material": 4,
          "mode": 4
        }
      ]
    },
    {
      "name": "Object_12",
      "primitives": [
        {
          "attributes": {
            "NORMAL": 49,
            "POSITION": 48,
            "TEXCOORD_0": 50
          },
          "indices": 51,
          "material": 4,
          "mode": 4
        }
      ]
    }
  ],
  "nodes": [
    {
      "children": [
        1
      ],
      "matrix": [
        1.0,
        0.0,
        0.0,
        0.0,
        0.0,
        2.220446049250313e-16,
        -1.0,
        0.0,
        0.0,
        1.0,
        2.220446049250313e-16,
        0.0,
        0.0,
        0.0,
        0.0,
        1.0
      ],
      "name": "Sketchfab_model"
    },
    {
      "children": [
        2,
        3,
        4,
        5,
        6,
        7,
        8,
        9,
        10,
        11,
        12,
        13,
        14
      ],
      "name": "20240114_tsurumi_3.obj.cleaner.materialmerger.gles"
    },
    {
      "mesh": 0,
      "name": "Object_2"
    },
    {
      "mesh": 1,
      "name": "Object_3"
    },
    {
      "mesh": 2,
      "name": "Object_4"
    },
    {
      "mesh": 3,
      "name": "Object_5"
    },
    {
      "mesh": 4,
      "name": "Object_6"
    },
    {
      "mesh": 5,
      "name": "Object_7"
    },
    {
      "mesh": 6,
      "name": "Object_8"
    },
    {
      "mesh": 7,
      "name": "Object_9"
    },
    {
      "mesh": 8,
      "name": "Object_10"
    },
    {
      "mesh": 9,
      "name": "Object_11"
    },
    {
      "mesh": 10,
      "name": "Object_12"
    },
    {
      "mesh": 11,
      "name": "Object_13"
    },
    {
      "mesh": 12,
      "name": "Object_14"
    }
  ],
  "scene": 0,
  "scenes": [
    {
      "name": "Sketchfab_Scene",
      "nodes": [
        0
      ]
    }
  ]
}
