<svg id="Layer_1" data-name="Layer 1" xmlns="http://www.w3.org/2000/svg" viewBox="0 0 3000 3000"><defs><style>.cls-1{fill:#f1e8e0;}.cls-2{fill:#243959;}</style></defs><rect class="cls-1" x="-6040" width="9040" height="6020"/><path class="cls-2" d="M695.89,1529.89l-.31-197.25H766a68.79,68.79,0,0,1,32,7.59,61.83,61.83,0,0,1,23.37,20.33,49.13,49.13,0,0,1,0,55.68A61.45,61.45,0,0,1,798,1436.73a68.91,68.91,0,0,1-32,7.58H709.54v85.58Zm13.65-99.84H766a56.66,56.66,0,0,0,25.18-5.62,47.59,47.59,0,0,0,18.36-15.17,35,35,0,0,0,6.83-20.78,35.48,35.48,0,0,0-6.83-21.09,47.7,47.7,0,0,0-18.36-15.18A56.79,56.79,0,0,0,766,1346.6H709.24Z"/><path class="cls-2" d="M992.67,1529.89l-81.94-99.54H935q22.46,0,36.41-5.76a48.63,48.63,0,0,0,17.91-14.72,34.83,34.83,0,0,0,7.59-21.7,35.78,35.78,0,0,0-6.38-20.18q-6.37-9.56-18.2-15.63T945,1346.29H889.79v183.6H876.14V1332.64H945a76.07,76.07,0,0,1,26.1,4.4,64,64,0,0,1,21.24,12.59,55.84,55.84,0,0,1,13.51,17.91,48.82,48.82,0,0,1-5.31,50.52q-10,13.2-23.67,19a62.5,62.5,0,0,1-18.36,5.31,160.79,160.79,0,0,1-19,1.06l71.32,86.49Z"/><path class="cls-2" d="M1148,1532a97.36,97.36,0,0,1-50.07-13.5,101.18,101.18,0,0,1,0-174.49,99.54,99.54,0,0,1,100.14,0,101.18,101.18,0,0,1,0,174.49A97.41,97.41,0,0,1,1148,1532Zm0-187.54a83,83,0,0,0-43.09,11.69,87.82,87.82,0,0,0-31.41,31.56,87,87,0,0,0,0,87.09,87.82,87.82,0,0,0,31.41,31.56,85.32,85.32,0,0,0,86.18,0,86.63,86.63,0,0,0,31.26-31.56,88,88,0,0,0,0-87.09,86.63,86.63,0,0,0-31.26-31.56A83,83,0,0,0,1148,1344.47Z"/><path class="cls-2" d="M1438.76,1332.64v14h-78v183.29h-14V1346.6h-78.29v-14Z"/><path class="cls-2" d="M1482.76,1529.89V1332.64h127.75v14h-114.1v77.68h88.92v14h-88.92v77.39h114.1v14.26Z"/><path class="cls-2" d="M1749.8,1532a96.56,96.56,0,0,1-50.07-13.65A101.1,101.1,0,0,1,1650,1431a98.66,98.66,0,0,1,13.36-50.37,100.48,100.48,0,0,1,36.41-36.72,98.24,98.24,0,0,1,90.28-5,103,103,0,0,1,33.84,24.43l-10.62,9.4a86.11,86.11,0,0,0-28.68-21.24,84.49,84.49,0,0,0-77.84,4.1,87.45,87.45,0,0,0-31.41,31.71,87.59,87.59,0,0,0,0,87.4,87.45,87.45,0,0,0,31.41,31.71,84.86,84.86,0,0,0,80,3.19,88,88,0,0,0,29.89-23.67l10.93,8.49a98.91,98.91,0,0,1-34.59,27.77A97.44,97.44,0,0,1,1749.8,1532Z"/><path class="cls-2" d="M2029.29,1332.64v14h-78v183.29h-14V1346.6h-78.29v-14Z"/><path class="cls-2" d="M2076.93,1529.89V1332.64h13.66v197.25Z"/><path class="cls-2" d="M1172.75,1731.46h25v-8.63h-15.51V1688.3h-9.5Z"/><path class="cls-2" d="M1346.23,1722.83h-15.5v-8.69h14.87v-8.65h-14.87v-8.57h15.5v-8.62h-25v43.16h25Z"/><path class="cls-2" d="M1492.87,1696.56c4.18,0,8.51,1.71,10.59,6.28h10.48a22.21,22.21,0,1,0-21.07,29.25,22.14,22.14,0,0,0,22.15-22.21v-1.47h-21.27v7.18h11c-2.36,6.55-7.69,7.87-11.87,7.87-6.85,0-12.56-6.16-12.56-13.46S1486,1696.56,1492.87,1696.56Z"/><path class="cls-2" d="M1662,1715H1651l5.45-15.36Zm16.12,16.5-17.5-43.16h-8.08l-17.5,43.16h10.22l3.1-8.69h16.44l3.1,8.69Z"/><path class="cls-2" d="M1799.64,1731.46h25v-8.63h-15.51V1688.3h-9.5Z"/><polygon class="cls-2" points="564.29 1149.23 564.29 1712.99 1081.81 1712.99 1081.81 1700.6 576.68 1700.6 576.68 1161.62 2423.32 1161.62 2423.32 1700.6 1921.4 1700.6 1921.4 1712.99 2435.71 1712.99 2435.71 1149.23 564.29 1149.23"/><path class="cls-2" d="M2229.87,1330.22,2137,1529.9h15.17l16.33-35,18-38.69.21-.44,42.51-91.85,40.62,91.85,4.61,10.41,6.06,13.66,6.67,15.06,15.48,35h14.88Z"/></svg>