<svg id="Layer_1" data-name="Layer 1" xmlns="http://www.w3.org/2000/svg" viewBox="0 0 3000 3000">
    <defs>
        <style>.cls-2{fill:#1b1b1b;}</style>
    </defs>
    <polygon class="cls-2"
        points="1269.06 1869.86 1267.95 1869.86 1267.95 1819.26 1268.99 1819.26 1269.06 1869.86" />
    <path class="cls-2"
        d="M1146.13,1016.84v966.34l707.74,4.51V1021.35Zm663.45,927-619.15-4.5V1060.71l619.15,4.51Z" />
    <path class="cls-2"
        d="M1317,1552.83h198.19q60.66,0,112.39-28.09t82-75.85q30.35-47.79,30.31-102.84a187.36,187.36,0,0,0-30.31-103.42q-30.45-47.2-82-75.34-51.74-28.11-112.39-28.08H1268l1,680.05.07,50.6h470.82v-50.6H1317Zm198.19-361.92q47.94,0,88.4,20.77t64.45,56.18a136.59,136.59,0,0,1,24,78.19q0,41.57-24,77t-64.45,56.18q-40.48,20.83-88.4,20.83H1317l-1-309.1Z" />
</svg>