<svg id="Layer_1" data-name="Layer 1" xmlns="http://www.w3.org/2000/svg" viewBox="0 0 3000 3000"><defs><style>.cls-1{fill:#f1e8e0;}.cls-2{fill:#243959;}</style></defs><rect class="cls-1" width="9040" height="6020"/><path class="cls-2" d="M878.41,1392.6a33.33,33.33,0,0,1,6.4,19.8,32.83,32.83,0,0,1-6.4,19.48,44.64,44.64,0,0,1-17.22,14.23,53.23,53.23,0,0,1-23.62,5.27h-53l-.27-78.26h53.22a53.36,53.36,0,0,1,23.62,5.26A44.88,44.88,0,0,1,878.41,1392.6Z"/><path class="cls-2" d="M1265.6,1411.67a81.39,81.39,0,0,0-29.31-29.6,80,80,0,0,0-80.82,0,82.53,82.53,0,0,0-29.47,29.6,81.57,81.57,0,0,0,0,81.68,82.14,82.14,0,0,0,29.47,29.6,80,80,0,0,0,80.82,0,81,81,0,0,0,29.31-29.6,82.49,82.49,0,0,0,0-81.68Zm0,0a81.39,81.39,0,0,0-29.31-29.6,80,80,0,0,0-80.82,0,82.53,82.53,0,0,0-29.47,29.6,81.57,81.57,0,0,0,0,81.68,82.14,82.14,0,0,0,29.47,29.6,80,80,0,0,0,80.82,0,81,81,0,0,0,29.31-29.6,82.49,82.49,0,0,0,0-81.68Zm0,0a81.39,81.39,0,0,0-29.31-29.6,80,80,0,0,0-80.82,0,82.53,82.53,0,0,0-29.47,29.6,81.57,81.57,0,0,0,0,81.68,82.14,82.14,0,0,0,29.47,29.6,80,80,0,0,0,80.82,0,81,81,0,0,0,29.31-29.6,82.49,82.49,0,0,0,0-81.68Zm0,0a81.39,81.39,0,0,0-29.31-29.6,80,80,0,0,0-80.82,0,82.53,82.53,0,0,0-29.47,29.6,81.57,81.57,0,0,0,0,81.68,82.14,82.14,0,0,0,29.47,29.6,80,80,0,0,0,80.82,0,81,81,0,0,0,29.31-29.6,82.49,82.49,0,0,0,0-81.68Zm0,0a81.39,81.39,0,0,0-29.31-29.6,80,80,0,0,0-80.82,0,82.53,82.53,0,0,0-29.47,29.6,81.57,81.57,0,0,0,0,81.68,82.14,82.14,0,0,0,29.47,29.6,80,80,0,0,0,80.82,0,81,81,0,0,0,29.31-29.6,82.49,82.49,0,0,0,0-81.68Zm0,0a81.39,81.39,0,0,0-29.31-29.6,80,80,0,0,0-80.82,0,82.53,82.53,0,0,0-29.47,29.6,81.57,81.57,0,0,0,0,81.68,82.14,82.14,0,0,0,29.47,29.6,80,80,0,0,0,80.82,0,81,81,0,0,0,29.31-29.6,82.49,82.49,0,0,0,0-81.68ZM688,1282.26v316.8H2359.38v-316.8Zm201.56,156.17a57.49,57.49,0,0,1-21.91,19.21,64.56,64.56,0,0,1-30,7.11h-53V1545H771.83l-.3-185h66a64.56,64.56,0,0,1,30,7.11,58.26,58.26,0,0,1,21.91,19.07,46.13,46.13,0,0,1,0,52.22ZM1050.15,1545l-76.83-93.35h22.77q21,0,34.15-5.41a45.53,45.53,0,0,0,16.79-13.8,32.68,32.68,0,0,0,7.12-20.35,33.54,33.54,0,0,0-6-18.92q-6-9-17.07-14.66t-25.63-5.7H953.68V1545h-12.8V1360h64.59a71.6,71.6,0,0,1,24.48,4.12,59.72,59.72,0,0,1,19.92,11.81,52.22,52.22,0,0,1,12.67,16.79,45.73,45.73,0,0,1-5,47.39,54.38,54.38,0,0,1-22.21,17.79,58.93,58.93,0,0,1-17.21,5,152.09,152.09,0,0,1-17.78,1l66.88,81.11ZM1277,1499.9a92.73,92.73,0,0,1-34.15,34.44,93.42,93.42,0,0,1-93.92,0,94.91,94.91,0,0,1,0-163.65,93.36,93.36,0,0,1,93.92,0A95.31,95.31,0,0,1,1277,1499.9Zm191.54-126.78h-73.13V1545h-13.1V1373.12h-73.43V1360h159.66Zm161.08,0h-107V1446H1606v13.1H1522.6v72.57h107V1545H1509.78V1360H1629.6Zm171,164.63a92.7,92.7,0,0,1-87.37-3.55,94.74,94.74,0,0,1-46.67-82,92.59,92.59,0,0,1,12.52-47.24,94.2,94.2,0,0,1,34.15-34.43,92.09,92.09,0,0,1,84.68-4.7,96.37,96.37,0,0,1,31.72,22.92l-10,8.82a80.53,80.53,0,0,0-26.9-19.93,79.24,79.24,0,0,0-73,3.84,81.85,81.85,0,0,0-29.45,29.74,82.11,82.11,0,0,0,0,82,81.75,81.75,0,0,0,29.45,29.73,79.53,79.53,0,0,0,75,3,82.37,82.37,0,0,0,28-22.19l10.25,8A92.61,92.61,0,0,1,1800.64,1537.75Zm221.7-164.63h-73.13V1545h-13.09V1373.12h-73.43V1360h159.65Zm57.5,171.89H2067V1360h12.81Zm198.93,0-20.78-47-5.68-12.8-2.68-6-39.74-89.88-44.38,95.92-6,12.8-21.92,47h-14.24l87.1-187.27L2292.72,1545ZM1236.29,1382.07a80,80,0,0,0-80.82,0,82.53,82.53,0,0,0-29.47,29.6,81.57,81.57,0,0,0,0,81.68,82.14,82.14,0,0,0,29.47,29.6,80,80,0,0,0,80.82,0,81,81,0,0,0,29.31-29.6,82.49,82.49,0,0,0,0-81.68A81.39,81.39,0,0,0,1236.29,1382.07Zm29.31,29.6a81.39,81.39,0,0,0-29.31-29.6,80,80,0,0,0-80.82,0,82.53,82.53,0,0,0-29.47,29.6,81.57,81.57,0,0,0,0,81.68,82.14,82.14,0,0,0,29.47,29.6,80,80,0,0,0,80.82,0,81,81,0,0,0,29.31-29.6,82.49,82.49,0,0,0,0-81.68Zm0,0a81.39,81.39,0,0,0-29.31-29.6,80,80,0,0,0-80.82,0,82.53,82.53,0,0,0-29.47,29.6,81.57,81.57,0,0,0,0,81.68,82.14,82.14,0,0,0,29.47,29.6,80,80,0,0,0,80.82,0,81,81,0,0,0,29.31-29.6,82.49,82.49,0,0,0,0-81.68Zm0,0a81.39,81.39,0,0,0-29.31-29.6,80,80,0,0,0-80.82,0,82.53,82.53,0,0,0-29.47,29.6,81.57,81.57,0,0,0,0,81.68,82.14,82.14,0,0,0,29.47,29.6,80,80,0,0,0,80.82,0,81,81,0,0,0,29.31-29.6,82.49,82.49,0,0,0,0-81.68Zm0,0a81.39,81.39,0,0,0-29.31-29.6,80,80,0,0,0-80.82,0,82.53,82.53,0,0,0-29.47,29.6,81.57,81.57,0,0,0,0,81.68,82.14,82.14,0,0,0,29.47,29.6,80,80,0,0,0,80.82,0,81,81,0,0,0,29.31-29.6,82.49,82.49,0,0,0,0-81.68Zm0,0a81.39,81.39,0,0,0-29.31-29.6,80,80,0,0,0-80.82,0,82.53,82.53,0,0,0-29.47,29.6,81.57,81.57,0,0,0,0,81.68,82.14,82.14,0,0,0,29.47,29.6,80,80,0,0,0,80.82,0,81,81,0,0,0,29.31-29.6,82.49,82.49,0,0,0,0-81.68Zm0,0a81.39,81.39,0,0,0-29.31-29.6,80,80,0,0,0-80.82,0,82.53,82.53,0,0,0-29.47,29.6,81.57,81.57,0,0,0,0,81.68,82.14,82.14,0,0,0,29.47,29.6,80,80,0,0,0,80.82,0,81,81,0,0,0,29.31-29.6,82.49,82.49,0,0,0,0-81.68Z"/><path class="cls-2" d="M699.46,1785.06v-100.3H688v111.81h51.48v-11.51Z"/><path class="cls-2" d="M1129,1796.57v-10.69h-54.92v-39.79h53.28v-10.85h-53.28v-39.81H1129v-10.67H1062.6v111.81Z"/><path class="cls-2" d="M1571.6,1744.27h-58.22v10h45.38a46.85,46.85,0,0,1-17.41,23.34,45.92,45.92,0,0,1-27.48,8.72,44.43,44.43,0,0,1-32.72-13.49,45.17,45.17,0,0,1-13.31-32.71,45.82,45.82,0,0,1,72-37.82,45.89,45.89,0,0,1,17.1,21.54h12.18a57,57,0,0,0-21.05-29.77,58,58,0,0,0-35.36-11.51,53.47,53.47,0,0,0-21.22,4.61,56.47,56.47,0,0,0-18.41,12.33,56.71,56.71,0,0,0-16.77,40.77,57.62,57.62,0,0,0,94.05,44.58,55,55,0,0,0,20.07-33.71Z"/><path class="cls-2" d="M1917,1755.47l20.39-51.48,20.23,51.48Zm69.39,41.1-49-119.55-49.17,119.55h12.5l12-30.43h49.17l12,30.43Z"/><path class="cls-2" d="M2319.42,1785.06v-100.3H2307.9v111.81h51.48v-11.51Z"/></svg>