<svg id="Layer_1" data-name="Layer 1" xmlns="http://www.w3.org/2000/svg" viewBox="0 0 3000 3000">
    <defs>
        <style>.cls-2{fill:#243959;}</style>
    </defs>
    <path class="cls-2"
        d="M536,1401l-.21-134.4h48.37a47.69,47.69,0,0,1,22,5.17,42.54,42.54,0,0,1,16.06,13.86,33.26,33.26,0,0,1,0,37.94,42.07,42.07,0,0,1-16.06,14,47.56,47.56,0,0,1-22,5.17H545.37V1401Zm9.38-68h38.78a39.28,39.28,0,0,0,17.31-3.83,32.6,32.6,0,0,0,12.61-10.34,23.71,23.71,0,0,0,4.7-14.16,24,24,0,0,0-4.7-14.37,32.69,32.69,0,0,0-12.61-10.34,39.28,39.28,0,0,0-17.31-3.83h-39Z" />
    <path class="cls-2"
        d="M739.9,1401l-56.29-67.82h16.68q15.42,0,25-3.93a33.35,33.35,0,0,0,12.3-10,23.61,23.61,0,0,0,5.21-14.79,24.31,24.31,0,0,0-4.37-13.75A32.3,32.3,0,0,0,725.93,1280a40.9,40.9,0,0,0-18.76-4.13H669.22V1401h-9.38v-134.4h47.33a52.6,52.6,0,0,1,17.93,3,44.11,44.11,0,0,1,14.6,8.58,38,38,0,0,1,9.27,12.2,33,33,0,0,1-3.64,34.43,39.62,39.62,0,0,1-16.27,12.92,43.15,43.15,0,0,1-12.61,3.62,110.09,110.09,0,0,1-13,.72l49,58.93Z" />
    <path class="cls-2"
        d="M846.66,1402.41a68.51,68.51,0,1,1,34.4-9.2A67.35,67.35,0,0,1,846.66,1402.41Zm0-127.78a57.39,57.39,0,0,0-29.61,8,60,60,0,0,0-21.58,21.5,58.83,58.83,0,0,0,0,59.34,60,60,0,0,0,21.58,21.51,59.05,59.05,0,0,0,59.22,0,59.28,59.28,0,0,0,21.47-21.51,59.47,59.47,0,0,0,0-59.34,59.25,59.25,0,0,0-21.47-21.5A57.41,57.41,0,0,0,846.66,1274.63Z" />
    <path class="cls-2" d="M1046.41,1266.56v9.51H992.82V1401h-9.59V1276.07H929.44v-9.51Z" />
    <path class="cls-2"
        d="M1076.64,1401v-134.4h87.78v9.51H1086V1329h61.09v9.51H1086v52.73h78.4V1401Z" />
    <path class="cls-2"
        d="M1260.12,1402.41a66.76,66.76,0,0,1-34.4-9.3,68.6,68.6,0,0,1-25-25.13,68.95,68.95,0,0,1,0-68.75,68.92,68.92,0,0,1,25-25,68,68,0,0,1,62-3.41,70.77,70.77,0,0,1,23.25,16.65l-7.3,6.41a59,59,0,0,0-19.7-14.48,58.44,58.44,0,0,0-53.48,2.79,59.77,59.77,0,0,0-21.58,21.61,59.22,59.22,0,0,0,0,59.55,59.77,59.77,0,0,0,21.58,21.61,58.71,58.71,0,0,0,54.94,2.17A60.43,60.43,0,0,0,1306,1371l7.51,5.79a68.2,68.2,0,0,1-53.38,25.64Z" />
    <path class="cls-2" d="M1452.16,1266.56v9.51h-53.59V1401H1389V1276.07h-53.8v-9.51Z" />
    <path class="cls-2" d="M1484.89,1401v-134.4h9.38V1401Z" />
    <path class="cls-2"
        d="M1590,1264.91,1526.18,1401h10.42l11.22-23.86,12.38-26.36.14-.3,29.21-62.59,27.91,62.59,3.17,7.09,4.16,9.31,4.59,10.26L1640,1401h10.21Z" />
    <path class="cls-2"
        d="M2194.94,1265.74l-63.8,136h10.42l11.22-23.86,12.38-26.36.15-.3,29.21-62.58,27.91,62.58,3.16,7.09,4.17,9.31,4.58,10.26,10.64,23.86h10.22Z" />
    <path class="cls-2" d="M1748.85,1401v-134.4h9.38v125.1h76.11v9.3Z" />
    <path class="cls-2" d="M1870,1401v-134.4h87.78v9.51h-78.4V1329h61.1v9.51h-61.1v52.73h78.4V1401Z" />
    <path class="cls-2"
        d="M2102.26,1401h-49a66.85,66.85,0,0,1-34.2-9.09,68,68,0,0,1-24.81-24.71,68,68,0,0,1,0-68.24,68.85,68.85,0,0,1,24.81-24.81,67.58,67.58,0,0,1,61.41-3.41,68.58,68.58,0,0,1,22.62,16.13l-6.88,6.41a58.91,58.91,0,0,0-72.35-10.76,58.93,58.93,0,0,0-21.48,21.2,58.19,58.19,0,0,0,0,58.62,59.47,59.47,0,0,0,21.48,21.4,57,57,0,0,0,29.4,8h39.19v-48.18h-44.61v-9.3h54.41Z" />
    <path class="cls-2" d="M2287.21,1401v-134.4h9.38v125.1h76.1v9.3Z" />
    <rect class="cls-2" x="1615.18" y="1562.39" width="764.45" height="6.84" />
    <rect class="cls-2" x="533.03" y="1562.39" width="764.45" height="6.84" />
    <polygon class="cls-2"
        points="1415.88 1639.1 1415.67 1639.1 1415.67 1629.07 1415.87 1629.07 1415.88 1639.1" />
    <path class="cls-2"
        d="M1391.86,1470.06v191.49l138.32.9V1471Zm129.66,183.69-121-.89v-174.1l121,.89Z" />
    <path class="cls-2"
        d="M1425.25,1576.28H1464a44.81,44.81,0,0,0,22-5.57,43.27,43.27,0,0,0,16-15,38.25,38.25,0,0,0,0-40.88,43.64,43.64,0,0,0-16-14.92,44.7,44.7,0,0,0-22-5.57h-48.31l.2,134.76v10h92v-10h-82.65Zm38.73-71.72a37,37,0,0,1,17.28,4.11,33.44,33.44,0,0,1,12.59,11.14,27.34,27.34,0,0,1,4.69,15.49,27,27,0,0,1-4.69,15.25,33.24,33.24,0,0,1-12.59,11.13,36.85,36.85,0,0,1-17.28,4.13h-38.73l-.21-61.25Z" />
</svg>