<svg id="Layer_1" data-name="Layer 1" xmlns="http://www.w3.org/2000/svg" viewBox="0 0 3000 3000"><defs><style>.cls-1{fill:#f1e8e0;}.cls-2{fill:#243959;}</style></defs><rect class="cls-1" x="-3020" y="-3020" width="9040" height="6020"/><path class="cls-2" d="M907.37,1257.22a33.25,33.25,0,0,1,6.41,19.8,32.77,32.77,0,0,1-6.41,19.48,44.5,44.5,0,0,1-17.21,14.22,53.1,53.1,0,0,1-23.62,5.28H813.59l-.28-78.26h53.23a53.36,53.36,0,0,1,23.62,5.26A44.85,44.85,0,0,1,907.37,1257.22Z"/><path class="cls-2" d="M1294.56,1276.29a81.29,81.29,0,0,0-29.3-29.6,80,80,0,0,0-80.83,0,82.53,82.53,0,0,0-29.47,29.6,81.64,81.64,0,0,0,0,81.68,82.3,82.3,0,0,0,29.47,29.6,80,80,0,0,0,80.83,0,81.06,81.06,0,0,0,29.3-29.6,82.42,82.42,0,0,0,0-81.68Zm0,0a81.29,81.29,0,0,0-29.3-29.6,80,80,0,0,0-80.83,0,82.53,82.53,0,0,0-29.47,29.6,81.64,81.64,0,0,0,0,81.68,82.3,82.3,0,0,0,29.47,29.6,80,80,0,0,0,80.83,0,81.06,81.06,0,0,0,29.3-29.6,82.42,82.42,0,0,0,0-81.68Zm0,0a81.29,81.29,0,0,0-29.3-29.6,80,80,0,0,0-80.83,0,82.53,82.53,0,0,0-29.47,29.6,81.64,81.64,0,0,0,0,81.68,82.3,82.3,0,0,0,29.47,29.6,80,80,0,0,0,80.83,0,81.06,81.06,0,0,0,29.3-29.6,82.42,82.42,0,0,0,0-81.68Zm0,0a81.29,81.29,0,0,0-29.3-29.6,80,80,0,0,0-80.83,0,82.53,82.53,0,0,0-29.47,29.6,81.64,81.64,0,0,0,0,81.68,82.3,82.3,0,0,0,29.47,29.6,80,80,0,0,0,80.83,0,81.06,81.06,0,0,0,29.3-29.6,82.42,82.42,0,0,0,0-81.68Zm0,0a81.29,81.29,0,0,0-29.3-29.6,80,80,0,0,0-80.83,0,82.53,82.53,0,0,0-29.47,29.6,81.64,81.64,0,0,0,0,81.68,82.3,82.3,0,0,0,29.47,29.6,80,80,0,0,0,80.83,0,81.06,81.06,0,0,0,29.3-29.6,82.42,82.42,0,0,0,0-81.68Zm0,0a81.29,81.29,0,0,0-29.3-29.6,80,80,0,0,0-80.83,0,82.53,82.53,0,0,0-29.47,29.6,81.64,81.64,0,0,0,0,81.68,82.3,82.3,0,0,0,29.47,29.6,80,80,0,0,0,80.83,0,81.06,81.06,0,0,0,29.3-29.6,82.42,82.42,0,0,0,0-81.68ZM716.92,1146.88v316.8H2388.35v-316.8Zm201.56,156.17a57.56,57.56,0,0,1-21.91,19.21,64.69,64.69,0,0,1-30,7.11H813.59v80.26H800.8l-.3-185h66a64.56,64.56,0,0,1,30,7.11,58.25,58.25,0,0,1,21.91,19.07,46.13,46.13,0,0,1,0,52.22Zm160.64,106.58-76.83-93.35h22.77q21,0,34.15-5.41a45.63,45.63,0,0,0,16.79-13.8,32.67,32.67,0,0,0,7.11-20.35,33.52,33.52,0,0,0-6-18.92q-6-9-17.07-14.66t-25.62-5.7h-51.8v172.19H969.85v-185h64.59a71.5,71.5,0,0,1,24.47,4.12,59.77,59.77,0,0,1,19.93,11.81,52.36,52.36,0,0,1,12.67,16.79,45.73,45.73,0,0,1-5,47.39,54.38,54.38,0,0,1-22.21,17.79,58.9,58.9,0,0,1-17.22,5,151.8,151.8,0,0,1-17.77,1l66.87,81.11ZM1306,1364.52a92.59,92.59,0,0,1-34.16,34.43,93.34,93.34,0,0,1-93.91,0,94.9,94.9,0,0,1,0-163.64,93.34,93.34,0,0,1,93.91,0A95.3,95.3,0,0,1,1306,1364.52Zm191.54-126.78h-73.14v171.89h-13.09V1237.74h-73.43v-13.09h159.66Zm161.08,0h-107v72.85H1635v13.1h-83.39v72.57h107v13.37H1538.75v-185h119.82Zm171,164.63a92.72,92.72,0,0,1-87.38-3.55,94.74,94.74,0,0,1-46.66-82,92.68,92.68,0,0,1,12.51-47.24,94.27,94.27,0,0,1,34.15-34.43,92.11,92.11,0,0,1,84.69-4.7,96.48,96.48,0,0,1,31.72,22.91l-10,8.83a80.59,80.59,0,0,0-26.89-19.93,79.24,79.24,0,0,0-73,3.84,81.78,81.78,0,0,0-29.45,29.74,82.11,82.11,0,0,0,0,82,81.67,81.67,0,0,0,29.45,29.73,79.53,79.53,0,0,0,75,3,82.46,82.46,0,0,0,28-22.19l10.25,8A92.5,92.5,0,0,1,1829.61,1402.37Zm221.7-164.63h-73.13v171.89h-13.09V1237.74h-73.43v-13.09h159.65Zm57.5,171.89H2096v-185h12.82Zm198.93,0-20.78-47-5.69-12.8-2.67-6L2238.86,1254l-44.39,95.92-6,12.8-21.91,47h-14.24l87.09-187.27,82.26,187.27ZM1265.26,1246.69a80,80,0,0,0-80.83,0,82.53,82.53,0,0,0-29.47,29.6,81.64,81.64,0,0,0,0,81.68,82.3,82.3,0,0,0,29.47,29.6,80,80,0,0,0,80.83,0,81.06,81.06,0,0,0,29.3-29.6,82.42,82.42,0,0,0,0-81.68A81.29,81.29,0,0,0,1265.26,1246.69Zm29.3,29.6a81.29,81.29,0,0,0-29.3-29.6,80,80,0,0,0-80.83,0,82.53,82.53,0,0,0-29.47,29.6,81.64,81.64,0,0,0,0,81.68,82.3,82.3,0,0,0,29.47,29.6,80,80,0,0,0,80.83,0,81.06,81.06,0,0,0,29.3-29.6,82.42,82.42,0,0,0,0-81.68Zm0,0a81.29,81.29,0,0,0-29.3-29.6,80,80,0,0,0-80.83,0,82.53,82.53,0,0,0-29.47,29.6,81.64,81.64,0,0,0,0,81.68,82.3,82.3,0,0,0,29.47,29.6,80,80,0,0,0,80.83,0,81.06,81.06,0,0,0,29.3-29.6,82.42,82.42,0,0,0,0-81.68Zm0,0a81.29,81.29,0,0,0-29.3-29.6,80,80,0,0,0-80.83,0,82.53,82.53,0,0,0-29.47,29.6,81.64,81.64,0,0,0,0,81.68,82.3,82.3,0,0,0,29.47,29.6,80,80,0,0,0,80.83,0,81.06,81.06,0,0,0,29.3-29.6,82.42,82.42,0,0,0,0-81.68Zm0,0a81.29,81.29,0,0,0-29.3-29.6,80,80,0,0,0-80.83,0,82.53,82.53,0,0,0-29.47,29.6,81.64,81.64,0,0,0,0,81.68,82.3,82.3,0,0,0,29.47,29.6,80,80,0,0,0,80.83,0,81.06,81.06,0,0,0,29.3-29.6,82.42,82.42,0,0,0,0-81.68Zm0,0a81.29,81.29,0,0,0-29.3-29.6,80,80,0,0,0-80.83,0,82.53,82.53,0,0,0-29.47,29.6,81.64,81.64,0,0,0,0,81.68,82.3,82.3,0,0,0,29.47,29.6,80,80,0,0,0,80.83,0,81.06,81.06,0,0,0,29.3-29.6,82.42,82.42,0,0,0,0-81.68Zm0,0a81.29,81.29,0,0,0-29.3-29.6,80,80,0,0,0-80.83,0,82.53,82.53,0,0,0-29.47,29.6,81.64,81.64,0,0,0,0,81.68,82.3,82.3,0,0,0,29.47,29.6,80,80,0,0,0,80.83,0,81.06,81.06,0,0,0,29.3-29.6,82.42,82.42,0,0,0,0-81.68Z"/><path class="cls-2" d="M976.7,1691.44h74.76v-25.82h-46.3V1562.4H976.7Z"/><path class="cls-2" d="M1296.07,1665.62h-46.3v-26h44.39v-25.82h-44.39v-25.61h46.3V1562.4h-74.76v129h74.76Z"/><path class="cls-2" d="M1535.18,1587.07c12.53,0,25.43,5.12,31.7,18.79h31.3a66.42,66.42,0,0,0-129.42,21.05c0,36.45,30,66.44,66.42,66.44a66.21,66.21,0,0,0,66.22-66.44v-4.37h-63.56V1644h32.83c-7,19.55-23,23.53-35.49,23.53-20.51,0-37.58-18.41-37.58-40.24S1514.67,1587.07,1535.18,1587.07Z"/><path class="cls-2" d="M1841.46,1642.09h-32.64l16.31-45.91Zm48.2,49.35-52.38-129h-24.1l-52.37,129h30.54l9.29-26h49.16l9.3,26Z"/><path class="cls-2" d="M2053.81,1691.44h74.76v-25.82h-46.3V1562.4h-28.46Z"/><path class="cls-2" d="M2394.35,1819.25H710.92V1140.88H2394.35Zm-1671.43-12H2382.35V1152.88H722.92Z"/></svg>