<svg id="Layer_1" data-name="Layer 1" xmlns="http://www.w3.org/2000/svg" viewBox="0 0 3000 3000"><defs><style>.cls-1{fill:#243959;}.cls-2{fill:#fff;}</style></defs><rect class="cls-1" x="-6040" y="-3020" width="9040" height="6020"/><polygon class="cls-2" points="1414.95 1653.81 1414.51 1653.81 1414.51 1633.63 1414.92 1633.63 1414.95 1653.81"/><path class="cls-2" d="M1365.92,1313.56V1699l282.31,1.8V1315.36Zm264.64,369.76-247-1.79V1331.06l247,1.8Z"/><path class="cls-2" d="M1434.06,1527.36h79a92.36,92.36,0,0,0,44.84-11.21,87.65,87.65,0,0,0,32.72-30.25,76,76,0,0,0,0-82.28,88.62,88.62,0,0,0-32.72-30,92.35,92.35,0,0,0-44.84-11.2h-98.6l.41,271.26,0,20.18h187.81v-20.18h-168.7Zm79-144.37a76.3,76.3,0,0,1,35.27,8.29,67.9,67.9,0,0,1,25.71,22.41,54.49,54.49,0,0,1,9.56,31.18,53.69,53.69,0,0,1-9.56,30.7,67.56,67.56,0,0,1-25.71,22.41,75.94,75.94,0,0,1-35.27,8.31h-79l-.42-123.3Z"/><path class="cls-2" d="M1367.68,2158.51l19.54-78.89-19-4.69-19.53,78.89Zm-8-18.55-15.39-3.82q-5.88-1.42-8.51-4.91c-1.74-2.26-2.18-5.07-1.31-8.4a9.5,9.5,0,0,1,5-6.66c2.57-1.17,5.79-1.28,9.71-.32l15.39,3.82,3.93-15.61-15.39-3.82c-6.68-1.69-12.57-2-17.67-1.09a23.2,23.2,0,0,0-12.55,6.33,25.92,25.92,0,0,0-6.88,12.77,27,27,0,0,0,0,14.73,23.49,23.49,0,0,0,8.19,11.45c4.09,3.2,9.46,5.62,16.15,7.31l15.38,3.82Z"/><path class="cls-2" d="M1242.11,2070.32l-4.58-43.1-20.73-10,7,44.19Zm-1.09,48.77,35.24-73.21-17.67-8.51-35.25,73.21Zm-3.93-20.29-14.29-6.88a18.4,18.4,0,0,1-5.57-4.14,9.24,9.24,0,0,1-2.29-5.13,10.84,10.84,0,0,1,1.09-5.79,12.35,12.35,0,0,1,3.93-4.69,8.38,8.38,0,0,1,5.46-1.31,17.05,17.05,0,0,1,6.54,2l14.3,6.87,6.65-13.75-15.49-7.53c-6.33-3-12-4.47-17.13-4.47a23.92,23.92,0,0,0-13.53,3.82,26,26,0,0,0-9.27,10.8,26.63,26.63,0,0,0-2.73,14.08,24.23,24.23,0,0,0,5.45,13c3.14,4.07,7.86,7.58,14.19,10.59l15.49,7.52Z"/><path class="cls-2" d="M1134.52,2011.23a27.24,27.24,0,0,1-10.15,8.07,21.15,21.15,0,0,1-11.68,1.86,22.34,22.34,0,0,1-11.45-5,23,23,0,0,1-7.53-10.15,20.71,20.71,0,0,1-.77-11.67,29.82,29.82,0,0,1,15.83-19.86,21,21,0,0,1,11.67-1.64,22.66,22.66,0,0,1,11.35,5,23,23,0,0,1,7.53,10,20.57,20.57,0,0,1,.87,11.57A27.37,27.37,0,0,1,1134.52,2011.23Zm16.25,13.09a44.56,44.56,0,0,0,8.3-15.49,43,43,0,0,0,1.41-16.37,41.18,41.18,0,0,0-5.23-15.71,48.14,48.14,0,0,0-11.9-13.53,47.45,47.45,0,0,0-15.6-8.4,38.56,38.56,0,0,0-16.47-1.64,39.15,39.15,0,0,0-15.61,5.13,47.23,47.23,0,0,0-13.2,11.46,44.43,44.43,0,0,0-8.18,15.49,38.6,38.6,0,0,0-1.31,16.15,41.71,41.71,0,0,0,5.45,15.6,46.74,46.74,0,0,0,11.57,13.21,47.92,47.92,0,0,0,15.49,8.29,41.24,41.24,0,0,0,16.37,1.85,41.09,41.09,0,0,0,28.91-16Z"/><path class="cls-2" d="M1025,1943.4l-14.07-17.35,49.53-40-12.22-15.28-49.53,40-14.19-17.45-13.64,11.13,40.48,50.08Z"/><path class="cls-2" d="M999.4,1797.24,980.31,1761l-14.3,7.53,19.1,36.22Zm-57.61,30.33-19.1-36.23-14.29,7.53,19.1,36.23Zm26.84-14.08-18-34.15-14.08,7.31,18,34.15Zm-35.13,33.06,71.9-37.86-8.73-16.58L924.77,1830Z"/><path class="cls-2" d="M914.06,1700.63a23.73,23.73,0,0,1-13.32.33,22.61,22.61,0,0,1-10.25-6.33,26.9,26.9,0,0,1-6.11-10.91,34,34,0,0,1-1.31-10.26,28.16,28.16,0,0,1,1.74-8.62,45.85,45.85,0,0,1,3.39-7.42l-20.3,5.79A40.2,40.2,0,0,0,865,1675.1c-.36,4.09.27,9,1.85,14.73a51.3,51.3,0,0,0,7.86,16.59A41.13,41.13,0,0,0,887,1717.65a38.51,38.51,0,0,0,15.27,5.13,44.89,44.89,0,0,0,17.57-1.63,43.23,43.23,0,0,0,15.71-7.75A40.82,40.82,0,0,0,946,1701a39.6,39.6,0,0,0,4.58-16,54.67,54.67,0,0,0-2.07-18.22c-1.59-5.73-3.6-10.26-6-13.53a37.85,37.85,0,0,0-8.83-8.62l-20.19,5.78a57.58,57.58,0,0,1,6.66,4.48,31.69,31.69,0,0,1,6,6.43,31.28,31.28,0,0,1,4.14,9.5,25.38,25.38,0,0,1,.66,12.44,22.6,22.6,0,0,1-5.46,10.8A23.78,23.78,0,0,1,914.06,1700.63Z"/><path class="cls-2" d="M867.47,1596.24,865.83,1574l63.62-4.47L928.14,1550l-63.62,4.47L862.89,1532l-17.46,1.21,4.58,64.26Z"/><path class="cls-2" d="M848.36,1465.55l80.85,8,2-19.86-80.86-8Z"/><path class="cls-2" d="M929.24,1376.12l12-41.13-14.73-3.17-11.24,38.63Zm-28.37-30.33,28.48-3.71,4.58,2.07,22-3.82,6.22-21.38-94.93,17,71,65.14,6.22-21.28-17.24-15.6-4.48-.33Z"/><path class="cls-2" d="M958.72,1153.13l65.58,48,30.77-42.12-13.53-9.93-19.21,26.3-52-38.08Z"/><path class="cls-2" d="M1100.34,1110.66l30.12-27.82-11-11.89-30.12,27.82Zm-44.3-47.79,30.12-27.82-10.92-11.9L1045.13,1051Zm20.62,22.26,28.37-26.3-10.69-11.67L1066,1073.45Zm-41-25.42,55.21,59.68,13.75-12.66-55.21-59.68Z"/><path class="cls-2" d="M1197.5,1000.85l18.66-10.91a26.36,26.36,0,0,1,.43,6.65,21.71,21.71,0,0,1-1.42,6.33,16,16,0,0,1-3.71,5.78,30.5,30.5,0,0,1-6.33,4.91,25,25,0,0,1-12.65,3.6,22.84,22.84,0,0,1-12-3.38,29.11,29.11,0,0,1-9.61-10.47,26.36,26.36,0,0,1-4.14-13.42,23,23,0,0,1,3.27-12,25.83,25.83,0,0,1,9.28-8.83,20.18,20.18,0,0,1,11.78-3.17,23.69,23.69,0,0,1,10.58,3.17L1212,952.51a45.67,45.67,0,0,0-12.88-4.15,41.53,41.53,0,0,0-14,.22,44.84,44.84,0,0,0-14.51,5.68,50.14,50.14,0,0,0-13.86,11.67,43.86,43.86,0,0,0-8.19,14.73,38.39,38.39,0,0,0-1.52,16.26,43,43,0,0,0,5.89,16.8,44.94,44.94,0,0,0,11.78,13.53,39.43,39.43,0,0,0,31.32,7.75,50.54,50.54,0,0,0,17.13-6.33,42.62,42.62,0,0,0,13.86-12.33,36.19,36.19,0,0,0,6.43-15.49,42.25,42.25,0,0,0-.65-16.92,55.78,55.78,0,0,0-7.42-16.91l-35.57,20.73Z"/><path class="cls-2" d="M1307.27,965.35l41-12.44-5.46-13.86-38.51,11.57Zm9.93-40.26,18.66,21.82.76,5,15.17,16.36,21.28-6.43L1307,891.59l-15.72,95,21.17-6.44,3.6-22.92-2.07-3.81Z"/><path class="cls-2" d="M1417.76,873l7.2,81,52-4.58-1.52-16.7L1443,935.55l-5.67-64.27Z"/><path class="cls-2" d="M1630.49,881.63l-20,78.78,19,4.91,20-78.78Zm7.86,18.66,15.38,3.93c3.85,1,6.6,2.59,8.29,4.91s2.21,5,1.42,8.29-2.51,5.51-5.13,6.66-5.75,1.28-9.6.33l-15.38-3.93-3.93,15.6,15.38,3.93c6.69,1.69,12.55,2.07,17.57,1.2A22.71,22.71,0,0,0,1674.9,935a27.1,27.1,0,0,0,7-12.88,26.45,26.45,0,0,0,0-14.62,23.8,23.8,0,0,0-8.07-11.45c-4-3.28-9.36-5.73-16-7.42l-15.39-3.93Z"/><path class="cls-2" d="M1755.5,970.64l4.36,43,20.73,10.14-6.76-44.19Zm1.42-48.89-35.68,73.11,17.67,8.62,35.68-73.11Zm3.81,20.3,14.19,7a15.85,15.85,0,0,1,5.45,4.26,9.65,9.65,0,0,1,2.4,5.13,10.17,10.17,0,0,1-1.2,5.78,11.31,11.31,0,0,1-3.92,4.58,8.32,8.32,0,0,1-5.46,1.31,17.24,17.24,0,0,1-6.55-2l-14.18-7-6.66,13.64,15.5,7.53c6.24,3.14,11.92,4.69,17,4.69a24.77,24.77,0,0,0,13.53-3.71,25.85,25.85,0,0,0,9.27-10.8,26.61,26.61,0,0,0,2.73-14.07,24.14,24.14,0,0,0-5.24-13q-4.69-6.09-14.07-10.8L1768,927.1Z"/><path class="cls-2" d="M1863,1030.18a27.56,27.56,0,0,1,10-8.07,21.82,21.82,0,0,1,11.68-1.75,22.34,22.34,0,0,1,11.45,5,22.59,22.59,0,0,1,7.53,10.25,21.27,21.27,0,0,1,.66,11.68,27.25,27.25,0,0,1-5.68,11.57,28.16,28.16,0,0,1-10.25,8.18,21.17,21.17,0,0,1-11.68,1.64,22.43,22.43,0,0,1-11.35-5.13,22.85,22.85,0,0,1-7.52-10,21.74,21.74,0,0,1-.77-11.68A28.36,28.36,0,0,1,1863,1030.18Zm-16.25-13.09a46.16,46.16,0,0,0-8.41,15.49,40.71,40.71,0,0,0-1.52,16.26,39.67,39.67,0,0,0,5.12,15.71,48.66,48.66,0,0,0,11.79,13.53,47.26,47.26,0,0,0,15.6,8.62,40.54,40.54,0,0,0,32.08-3.38,47.3,47.3,0,0,0,21.61-26.84,38.77,38.77,0,0,0,1.3-16.15,40.25,40.25,0,0,0-5.34-15.61,49.74,49.74,0,0,0-27-21.71,40.66,40.66,0,0,0-16.37-1.85,38.77,38.77,0,0,0-15.6,4.69A42.76,42.76,0,0,0,1846.71,1017.09Z"/><path class="cls-2" d="M1971.94,1098.56l14,17.46-49.76,39.83,12.22,15.27,49.76-39.82,14,17.56,13.75-11-40.15-50.3Z"/><path class="cls-2" d="M1996.86,1245l18.87,36.22,14.3-7.42-18.88-36.22Zm57.83-30,18.87,36.22,14.3-7.52L2069,1207.44Zm-27,14,17.89,34.26,14.08-7.31-17.9-34.26Zm35.24-33.07-72.12,37.54,8.73,16.69,72.12-37.53Z"/><path class="cls-2" d="M2081.72,1342.06a21.93,21.93,0,0,1,23.46,6.11,25.89,25.89,0,0,1,6,10.8,30.36,30.36,0,0,1,1.31,10.36,27.87,27.87,0,0,1-1.74,8.62,56.55,56.55,0,0,1-3.39,7.31l20.3-5.56a40.27,40.27,0,0,0,2.94-11.89c.44-4.1-.16-9-1.74-14.73a50.05,50.05,0,0,0-7.86-16.59,40.55,40.55,0,0,0-12.11-11.24,38.87,38.87,0,0,0-15.38-5.34,43.22,43.22,0,0,0-17.46,1.52,44.24,44.24,0,0,0-15.82,7.75,42.05,42.05,0,0,0-10.59,12.44,38.87,38.87,0,0,0-4.58,15.93,53.35,53.35,0,0,0,2,18.22c1.59,5.73,3.61,10.26,6,13.53a36.43,36.43,0,0,0,8.72,8.62l20.3-5.56a54.75,54.75,0,0,1-6.77-4.7,29.93,29.93,0,0,1-5.89-6.43,31.49,31.49,0,0,1-4.25-9.5,25.83,25.83,0,0,1-.55-12.33,22.79,22.79,0,0,1,5.57-10.8A24.28,24.28,0,0,1,2081.72,1342.06Z"/><path class="cls-2" d="M2127.58,1446.59l1.53,22.37-63.61,4.15,1.2,19.42,63.61-4.15,1.42,22.48,17.46-1.09L2145,1445.5Z"/><path class="cls-2" d="M2146.12,1577.41l-80.85-8.4-2.08,19.86,80.86,8.4Z"/><path class="cls-2" d="M2064.74,1666.46l-12.22,41.13,14.62,3.06L2078.6,1672Zm28.15,30.44-28.59,3.6-4.58-2.07-21.93,3.6-6.33,21.28,95-16.37-70.71-65.58-6.33,21.28,17.24,15.71,4.26.22Z"/><path class="cls-2" d="M2034.11,1889.23l-65.36-48.33-31.09,42,13.53,10,19.42-26.29,51.83,38.3Z"/><path class="cls-2" d="M1892.22,1931l-30.22,27.6,10.91,11.9,30.22-27.61Zm44,48-30.22,27.6,10.91,11.9,30.22-27.61Zm-20.51-22.37-28.48,26.08,10.7,11.67,28.47-26.08Zm41,25.42-54.89-59.9L1888,1935l54.88,59.9Z"/><path class="cls-2" d="M1794.55,2040.17l-18.77,10.8a25.36,25.36,0,0,1-.43-6.55,21.71,21.71,0,0,1,1.42-6.33,19.08,19.08,0,0,1,3.71-5.67,27.51,27.51,0,0,1,6.43-5,25.05,25.05,0,0,1,12.66-3.6,23,23,0,0,1,12.11,3.6,28.26,28.26,0,0,1,9.49,10.47c2.76,4.72,4.1,9.22,4,13.53a22,22,0,0,1-3.38,11.9,25.86,25.86,0,0,1-9.28,8.84,21,21,0,0,1-11.78,3.05,25,25,0,0,1-10.58-3.27l-10.59,16.47a50.1,50.1,0,0,0,13,4.26,39.49,39.49,0,0,0,14-.11,46.9,46.9,0,0,0,14.62-5.57,50.88,50.88,0,0,0,13.86-11.56,44,44,0,0,0,8.19-14.62,37.56,37.56,0,0,0,1.63-16.37,41.94,41.94,0,0,0-5.78-16.8,44.72,44.72,0,0,0-11.68-13.64,40.24,40.24,0,0,0-14.73-7.31,42.31,42.31,0,0,0-16.58-.66,50.47,50.47,0,0,0-17,6.33,44.15,44.15,0,0,0-14.08,12.22,37.41,37.41,0,0,0-6.54,15.5A43.18,43.18,0,0,0,1759,2057a52,52,0,0,0,7.42,16.91l35.68-20.51Z"/><path class="cls-2" d="M1684.49,2075.12l-41.13,12.22,5.45,14,38.63-11.57Zm-10.14,40.26-18.55-22-.77-5L1640,2072l-21.38,6.33,65.68,70.6,16.37-94.93-21.28,6.22-3.71,23,2.19,3.71Z"/><path class="cls-2" d="M1573.51,2166.88l-6.76-81-52,4.25,1.42,16.7,32.51-2.62,5.35,64.27Z"/><path class="cls-2" d="M1504.67,2274a770.73,770.73,0,0,1-432.92-132.24,776.6,776.6,0,0,1-280.53-340.66,773.31,773.31,0,0,1,71.39-734.32,776.53,776.53,0,0,1,340.67-280.53,773.3,773.3,0,0,1,734.31,71.39,776.53,776.53,0,0,1,280.53,340.67,773.25,773.25,0,0,1-71.39,734.31,776.53,776.53,0,0,1-340.67,280.53A769.37,769.37,0,0,1,1504.67,2274Zm0-1543.3A765.36,765.36,0,0,0,1074.72,862,771.28,771.28,0,0,0,796.1,1200.35,768,768,0,0,0,867,1929.64a771.5,771.5,0,0,0,338.34,278.62,767.94,767.94,0,0,0,729.29-70.91A771.19,771.19,0,0,0,2213.24,1799a768,768,0,0,0-70.9-729.28A771.14,771.14,0,0,0,1804,791.11,764.17,764.17,0,0,0,1504.67,730.68Z"/><path class="cls-2" d="M1509,2303a798.33,798.33,0,0,1-448.48-137,804.28,804.28,0,0,1-290.62-352.92,801.17,801.17,0,0,1,74-760.72,804.64,804.64,0,0,1,352.92-290.62,801,801,0,0,1,760.72,74,804.28,804.28,0,0,1,290.62,352.92,801.17,801.17,0,0,1-74,760.72A804.64,804.64,0,0,1,1821.22,2240,797.16,797.16,0,0,1,1509,2303Zm0-1600.18A794.27,794.27,0,0,0,1062.8,839.12a800.51,800.51,0,0,0-289.13,351.11A796.92,796.92,0,0,0,847.25,1947a800.15,800.15,0,0,0,351.11,289.13,797.05,797.05,0,0,0,756.81-73.57,800.51,800.51,0,0,0,289.13-351.11,796.92,796.92,0,0,0-73.58-756.81,800.31,800.31,0,0,0-351.11-289.14A793.05,793.05,0,0,0,1509,702.83Z"/></svg>