{
  "accessors": [
    {
      "bufferView": 2,
      "componentType": 5126,
      "count": 60225,
      "max": [
        0.04590899869799614,
        7.599999662488699e-05,
        0.08987099677324295
      ],
      "min": [
        -0.05795799940824509,
        -0.0714230015873909,
        -0.14845700562000275
      ],
      "type": "VEC3"
    },
    {
      "bufferView": 2,
      "byteOffset": 722700,
      "componentType": 5126,
      "count": 60225,
      "max": [
        0.999997615814209,
        0.9999971389770508,
        0.9996723532676697
      ],
      "min": [
        -0.9999575614929199,
        -0.9999858140945435,
        -0.9997994303703308
      ],
      "type": "VEC3"
    },
    {
      "bufferView": 3,
      "componentType": 5126,
      "count": 60225,
      "max": [
        0.9997018575668335,
        0.999994695186615,
        0.999991238117218,
        1.0
      ],
      "min": [
        -0.9999908208847046,
        -0.9996520280838013,
        -0.9999998211860657,
        -1.0
      ],
      "type": "VEC4"
    },
    {
      "bufferView": 1,
      "componentType": 5126,
      "count": 60225,
      "max": [
        0.8966749906539917,
        0.9995120167732239
      ],
      "min": [
        0.0004879999905824661,
        0.0004879999905824661
      ],
      "type": "VEC2"
    },
    {
      "bufferView": 0,
      "componentType": 5125,
      "count": 210000,
      "type": "SCALAR"
    }
  ],
  "asset": {
    "extras": {
      "author": "Cleveland Museum of Art (https://sketchfab.com/clevelandart)",
      "license": "CC-BY-4.0 (http://creativecommons.org/licenses/by/4.0/)",
      "source": "https://sketchfab.com/3d-models/1930240-figurine-of-a-lady-e80e7669e5ce476090524b02e96cb015",
      "title": "1930.240 Figurine Of A Lady"
    },
    "generator": "Sketchfab-15.47.0",
    "version": "2.0"
  },
  "bufferViews": [
    {
      "buffer": 0,
      "byteLength": 840000,
      "name": "floatBufferViews",
      "target": 34963
    },
    {
      "buffer": 0,
      "byteLength": 481800,
      "byteOffset": 840000,
      "byteStride": 8,
      "name": "floatBufferViews",
      "target": 34962
    },
    {
      "buffer": 0,
      "byteLength": 1445400,
      "byteOffset": 1321800,
      "byteStride": 12,
      "name": "floatBufferViews",
      "target": 34962
    },
    {
      "buffer": 0,
      "byteLength": 963600,
      "byteOffset": 2767200,
      "byteStride": 16,
      "name": "floatBufferViews",
      "target": 34962
    }
  ],
  "buffers": [
    {
      "byteLength": 3730800,
      "uri": "scene.bin"
    }
  ],
  "images": [
    {
      "uri": "textures/Figurine_Mats_baseColor.png"
    },
    {
      "uri": "textures/Figurine_Mats_metallicRoughness.png"
    },
    {
      "uri": "textures/Figurine_Mats_normal.png"
    }
  ],
  "materials": [
    {
      "doubleSided": true,
      "name": "Figurine_Mats",
      "normalTexture": {
        "index": 2
      },
      "pbrMetallicRoughness": {
        "baseColorTexture": {
          "index": 0
        },
        "metallicFactor": 0.0,
        "metallicRoughnessTexture": {
          "index": 1
        }
      }
    }
  ],
  "meshes": [
    {
      "name": "Object_0",
      "primitives": [
        {
          "attributes": {
            "NORMAL": 1,
            "POSITION": 0,
            "TANGENT": 2,
            "TEXCOORD_0": 3
          },
          "indices": 4,
          "material": 0,
          "mode": 4
        }
      ]
    }
  ],
  "nodes": [
    {
      "children": [
        1
      ],
      "matrix": [
        0.964435875415802,
        0.19092866778373715,
        0.18278305232524877,
        0.0,
        -0.18593023717403412,
        -0.001455320860259453,
        0.9825618863105774,
        0.0,
        0.1878652423620224,
        -0.9816028475761414,
        0.0340958498418329,
        0.0,
        0.0,
        0.0,
        0.0,
        1.0
      ],
      "name": "Sketchfab_model"
    },
    {
      "children": [
        2
      ],
      "name": "Figurine of a Lady.obj.cleaner.materialmerger.gles"
    },
    {
      "mesh": 0,
      "name": "Object_2"
    }
  ],
  "samplers": [
    {
      "magFilter": 9729,
      "minFilter": 9987,
      "wrapS": 10497,
      "wrapT": 10497
    }
  ],
  "scene": 0,
  "scenes": [
    {
      "name": "Sketchfab_Scene",
      "nodes": [
        0
      ]
    }
  ],
  "textures": [
    {
      "sampler": 0,
      "source": 0
    },
    {
      "sampler": 0,
      "source": 1
    },
    {
      "sampler": 0,
      "source": 2
    }
  ]
}
